<svg width="628" height="485" viewBox="0 0 628 485" fill="none" xmlns="http://www.w3.org/2000/svg">
<path opacity="0.3" fill-rule="evenodd" clip-rule="evenodd" d="M567.47 484.03L497.47 414.03L498.53 412.97L568.53 482.97L567.47 484.03ZM586.47 484.03L516.47 414.03L517.53 412.97L587.53 482.97L586.47 484.03ZM535.47 414.03L605.47 484.03L606.53 482.97L536.53 412.97L535.47 414.03ZM621.47 481.53L554.47 414.53L555.53 413.47L622.53 480.47L621.47 481.53ZM573.47 414.53L626.47 467.53L627.53 466.47L574.53 413.47L573.47 414.53ZM626.47 448.53L592.47 414.53L593.53 413.47L627.53 447.47L626.47 448.53ZM611.47 414.53L626.47 429.53L627.53 428.47L612.53 413.47L611.47 414.53Z" fill="white"/>
<path d="M12 0.75H615C621.213 0.75 626.25 5.7868 626.25 12V36.25H0.75V12C0.75 5.7868 5.7868 0.75 12 0.75Z" stroke="white" stroke-width="1.5"/>
<path d="M0.75 36.75H626.25V472C626.25 478.213 621.213 483.25 615 483.25H12C5.7868 483.25 0.75 478.213 0.75 472V36.75Z" stroke="white" stroke-width="1.5"/>
<path fill-rule="evenodd" clip-rule="evenodd" d="M22 19C22 20.1046 21.1046 21 20 21C18.8954 21 18 20.1046 18 19C18 17.8954 18.8954 17 20 17C21.1046 17 22 17.8954 22 19ZM30 19C30 20.1046 29.1046 21 28 21C26.8954 21 26 20.1046 26 19C26 17.8954 26.8954 17 28 17C29.1046 17 30 17.8954 30 19ZM36 21C37.1046 21 38 20.1046 38 19C38 17.8954 37.1046 17 36 17C34.8954 17 34 17.8954 34 19C34 20.1046 34.8954 21 36 21Z" fill="white"/>
</svg>
