<svg width="136" height="21" viewBox="0 0 136 21" fill="none" xmlns="http://www.w3.org/2000/svg">
<path d="M17.8347 6.85649C18.5128 6.85649 19.1756 6.65543 19.7393 6.27873C20.3031 5.90203 20.7425 5.36662 21.002 4.74019C21.2615 4.11376 21.3294 3.42446 21.1971 2.75945C21.0648 2.09444 20.7383 1.48358 20.2589 1.00414C19.7794 0.524691 19.1685 0.198184 18.5035 0.0659046C17.8385 -0.0663745 17.1492 0.00151591 16.5228 0.260991C15.8964 0.520465 15.361 0.95987 14.9843 1.52364C14.6076 2.08741 14.4065 2.75022 14.4065 3.42826C14.4065 4.33749 14.7677 5.20947 15.4106 5.85239C16.0535 6.49531 16.9255 6.85649 17.8347 6.85649Z" fill="white"/>
<path d="M14.267 16.9674C12.5042 16.9672 10.7941 16.366 9.41915 15.2629C8.04416 14.1598 7.08643 12.6208 6.70406 10.9C6.58137 10.5091 6.51893 10.1019 6.51891 9.69219V5.0576C6.50108 4.20493 6.14985 3.3932 5.54052 2.79648C4.9312 2.19976 4.1123 1.86557 3.25945 1.86557C2.4066 1.86557 1.58771 2.19976 0.978386 2.79648C0.369061 3.3932 0.0178248 4.20493 0 5.0576L0 9.53124C0 15.4648 4.83257 20.3429 10.7647 20.2247C12.6665 20.1861 14.5224 19.6339 16.1361 18.6268C17.7498 17.6196 19.0611 16.1949 19.9313 14.5034C19.2076 15.2819 18.331 15.9025 17.3563 16.3265C16.3816 16.7505 15.3299 16.9687 14.267 16.9674Z" fill="white"/>
<path d="M21.0992 9.56112C21.0992 9.31219 21.0004 9.07346 20.8243 8.89744C20.6483 8.72142 20.4096 8.62253 20.1607 8.62253H15.5061C15.2572 8.62253 15.0185 8.72142 14.8424 8.89744C14.6664 9.07346 14.5675 9.31219 14.5675 9.56112V9.69216C14.5667 10.6532 14.2221 11.5822 13.5959 12.3112C12.9698 13.0402 12.1034 13.5211 11.1536 13.667C10.2037 13.8129 9.23299 13.6142 8.41693 13.1066C7.60086 12.5991 6.9933 11.8164 6.7041 10.8999C7.00973 12.2777 7.68599 13.5458 8.65983 14.5672C9.63367 15.5886 10.8681 16.3245 12.2297 16.6955C13.5913 17.0664 15.0285 17.0583 16.3858 16.6719C17.7431 16.2856 18.9691 15.5357 19.9313 14.5034C20.701 13.0109 21.1015 11.3557 21.0992 9.67649V9.56112Z" fill="url(#paint0_linear)"/>
<path d="M31.4524 15.2782C31.1332 15.2214 30.8442 15.0541 30.6359 14.8057C30.4276 14.5573 30.3133 14.2436 30.3129 13.9194V3.68743C30.309 3.61561 30.278 3.54793 30.2262 3.498C30.1745 3.44807 30.1057 3.41957 30.0338 3.41824H29.2761C29.2028 3.41824 29.1325 3.44735 29.0807 3.49917C29.0289 3.55099 28.9998 3.62127 28.9998 3.69455V13.9194C29.0006 14.5801 29.244 15.2175 29.6838 15.7106C30.1236 16.2037 30.7291 16.5181 31.3854 16.5942C31.4246 16.5972 31.4639 16.592 31.501 16.579C31.5381 16.566 31.572 16.5455 31.6008 16.5187C31.6296 16.492 31.6525 16.4596 31.6681 16.4235C31.6837 16.3875 31.6917 16.3486 31.6916 16.3094V15.5531C31.6902 15.4865 31.6654 15.4226 31.6217 15.3724C31.578 15.3221 31.5181 15.2888 31.4524 15.2782Z" fill="white"/>
<path d="M44.0286 7.75514H42.1942C42.1573 7.75285 42.1203 7.75842 42.0858 7.7715C42.0512 7.78457 42.0198 7.80485 41.9937 7.83098C41.9676 7.85711 41.9473 7.8885 41.9342 7.92306C41.9212 7.95762 41.9156 7.99457 41.9179 8.03145V8.54561C41.9143 8.58318 41.9189 8.62107 41.9314 8.65668C41.9439 8.69229 41.964 8.72476 41.9902 8.75185C42.0165 8.77893 42.0484 8.79999 42.0836 8.81357C42.1188 8.82714 42.1565 8.83291 42.1942 8.83047H42.9946V17.3234C42.9946 18.4315 42.4035 18.8901 41.5903 18.8901C41.447 18.8906 41.304 18.8782 41.163 18.8531C41.1292 18.8388 41.0925 18.8324 41.0558 18.8344C41.0191 18.8364 40.9834 18.8467 40.9513 18.8645C40.9192 18.8824 40.8915 18.9073 40.8705 18.9374C40.8494 18.9675 40.8355 19.002 40.8297 19.0382L40.6645 19.6293C40.6275 19.796 40.6645 19.9241 40.8297 19.9797C41.1171 20.0667 41.4171 20.1042 41.717 20.0908C43.3051 20.0908 44.3021 19.0938 44.3021 17.3021V8.03145C44.3041 7.99488 44.2985 7.95828 44.2855 7.92403C44.2725 7.88978 44.2525 7.85863 44.2267 7.8326C44.2009 7.80656 44.17 7.78621 44.1359 7.77287C44.1018 7.75953 44.0652 7.75349 44.0286 7.75514Z" fill="white"/>
<path d="M43.4832 4.90671C42.8922 4.92522 42.4492 5.31263 42.4492 5.9037C42.4492 6.49477 42.8922 6.90069 43.4832 6.90069C43.7477 6.90069 44.0013 6.79565 44.1882 6.60868C44.3752 6.42171 44.4802 6.16812 44.4802 5.9037C44.4802 5.63928 44.3752 5.38569 44.1882 5.19872C44.0013 5.01175 43.7477 4.90671 43.4832 4.90671Z" fill="white"/>
<path d="M53.627 9.27344C53.0216 8.32772 51.8438 7.54865 50.146 7.54865C47.7817 7.54865 45.9644 9.47854 45.9644 12.0693C45.9644 14.6601 47.8159 16.5914 50.1831 16.5914C51.8096 16.5914 52.9647 15.8536 53.627 14.8509L53.664 16.1413C53.6615 16.1794 53.6671 16.2175 53.6805 16.2532C53.694 16.2889 53.7149 16.3213 53.7418 16.3483C53.7688 16.3753 53.8012 16.3962 53.8369 16.4096C53.8726 16.423 53.9108 16.4287 53.9488 16.4262H54.5499C54.6254 16.4262 54.6979 16.3961 54.7513 16.3427C54.8047 16.2893 54.8347 16.2168 54.8347 16.1413V8.0386C54.8347 7.96305 54.8047 7.89059 54.7513 7.83717C54.6979 7.78375 54.6254 7.75374 54.5499 7.75374H54.0785C54.0093 7.75306 53.9423 7.77754 53.8899 7.82261C53.8375 7.86768 53.8033 7.93027 53.7936 7.99872L53.627 9.27344ZM50.4109 15.3636C48.7018 15.3636 47.3074 13.9636 47.3074 12.0721C47.3074 10.1807 48.7104 8.78064 50.4109 8.78064C52.2824 8.78064 53.5443 10.1807 53.5443 12.0721C53.5443 13.9636 52.2824 15.3636 50.4109 15.3636Z" fill="white"/>
<path d="M58.8909 7.75507H57.1547C57.0962 7.75177 57.0377 7.76085 56.983 7.78173C56.9283 7.80261 56.8786 7.83481 56.8372 7.87622C56.7958 7.91763 56.7636 7.96732 56.7427 8.02204C56.7218 8.07676 56.7127 8.13527 56.716 8.19375V15.9874C56.7111 16.0463 56.719 16.1056 56.7393 16.1611C56.7596 16.2167 56.7917 16.2671 56.8334 16.309C56.8752 16.3509 56.9255 16.3832 56.981 16.4036C57.0365 16.4241 57.0958 16.4322 57.1547 16.4275H58.8909C58.9507 16.4319 59.0107 16.4237 59.0671 16.4034C59.1235 16.3831 59.1751 16.3512 59.2183 16.3097C59.2616 16.2682 59.2956 16.218 59.3182 16.1625C59.3408 16.107 59.3515 16.0473 59.3495 15.9874V8.19375C59.3513 8.13395 59.3405 8.07445 59.3178 8.01909C59.2951 7.96374 59.261 7.91377 59.2178 7.87242C59.1745 7.83106 59.1231 7.79925 59.0668 7.77904C59.0105 7.75882 58.9506 7.75066 58.8909 7.75507Z" fill="white"/>
<path d="M65.9996 7.54865C64.705 7.54865 63.5955 8.05996 62.9645 8.93162L62.7267 8.07705C62.7009 7.98379 62.645 7.90166 62.5678 7.84344C62.4905 7.78522 62.3961 7.75419 62.2994 7.75517H61.3978C61.3381 7.75075 61.2782 7.75892 61.2219 7.77913C61.1656 7.79935 61.1142 7.83116 61.0709 7.87251C61.0277 7.91386 60.9936 7.96383 60.971 8.01919C60.9483 8.07454 60.9374 8.13404 60.9392 8.19384V15.9875C60.9372 16.0474 60.9479 16.1071 60.9705 16.1626C60.9931 16.2181 61.0271 16.2682 61.0704 16.3098C61.1137 16.3513 61.1652 16.3832 61.2216 16.4035C61.278 16.4238 61.338 16.432 61.3978 16.4276H63.1383C63.196 16.4276 63.2532 16.4162 63.3065 16.394C63.3598 16.3719 63.4082 16.3395 63.449 16.2986C63.4897 16.2577 63.522 16.2092 63.544 16.1558C63.5659 16.1024 63.5771 16.0452 63.577 15.9875V11.8884C63.577 10.749 64.3461 9.94428 65.4456 9.94428C66.5138 9.94428 67.2046 10.7362 67.2046 11.9625V15.9875C67.2026 16.0474 67.2133 16.1071 67.2359 16.1626C67.2585 16.2181 67.2925 16.2682 67.3358 16.3098C67.379 16.3513 67.4305 16.3832 67.487 16.4035C67.5434 16.4238 67.6034 16.432 67.6632 16.4276H69.398C69.5147 16.4276 69.6266 16.3812 69.7092 16.2987C69.7917 16.2161 69.8381 16.1042 69.8381 15.9875V11.6292C69.8381 9.15238 68.3312 7.54865 65.9996 7.54865Z" fill="white"/>
<path d="M82.5211 7.54865C79.9332 7.54865 77.9805 9.49278 77.9805 12.0693C77.9805 14.6458 80.0357 16.5914 82.7603 16.5914C84.4695 16.5914 85.5163 16.0558 86.0946 15.6072C86.1423 15.5739 86.1829 15.5313 86.214 15.4821C86.2451 15.4328 86.266 15.3779 86.2756 15.3204C86.2851 15.263 86.2831 15.2042 86.2696 15.1475C86.2562 15.0909 86.2315 15.0375 86.1971 14.9905L85.5505 13.8511C85.5258 13.7975 85.4896 13.75 85.4446 13.7118C85.3996 13.6737 85.3468 13.6459 85.2899 13.6303C85.227 13.6191 85.1625 13.6217 85.1007 13.6379C85.039 13.6542 84.9816 13.6836 84.9324 13.7243C84.3831 14.1418 83.7093 14.362 83.0196 14.3496C81.8873 14.3496 80.9743 13.7642 80.6524 12.8455H86.3994C86.4563 12.8469 86.5129 12.8368 86.5659 12.8159C86.6189 12.795 86.6672 12.7638 86.708 12.724C86.7487 12.6841 86.7811 12.6366 86.8032 12.5841C86.8253 12.5316 86.8366 12.4752 86.8366 12.4182C86.853 12.3084 86.8597 12.1974 86.8566 12.0864C86.8566 9.41872 85.0734 7.54865 82.5211 7.54865ZM80.6481 11.0794C80.9216 10.1921 81.6309 9.68506 82.6079 9.68506C83.0122 9.67492 83.4068 9.80979 83.7203 10.0653C84.0337 10.3208 84.2454 10.68 84.3171 11.078L80.6481 11.0794Z" fill="white"/>
<path d="M96.5487 7.75504H95.3423C95.245 7.75431 95.1502 7.78596 95.0729 7.84501C94.9955 7.90405 94.94 7.98714 94.915 8.0812L94.7584 8.67085C94.3871 8.30809 93.9479 8.02222 93.4659 7.82962C92.984 7.63702 92.4687 7.54149 91.9497 7.54852C89.5284 7.54852 87.7068 9.49265 87.7068 12.0692C87.7068 14.6457 89.5071 16.5912 91.8956 16.5912C92.8017 16.5984 93.6782 16.2691 94.3553 15.6669V16.0842C94.3553 17.1638 93.4124 17.9172 92.0608 17.9172C91.1895 17.9082 90.3323 17.6966 89.5569 17.2991C89.2949 17.1795 89.0712 17.2464 88.9587 17.4714L88.2751 18.6337C88.21 18.7313 88.1821 18.8491 88.1967 18.9655C88.2086 19.0236 88.2331 19.0783 88.2686 19.1259C88.304 19.1734 88.3495 19.2125 88.4018 19.2404C89.4131 19.8856 90.6636 20.1989 92.2274 20.1989C95.1201 20.1989 96.9888 18.4613 96.9888 15.7709V8.19371C96.9888 8.13599 96.9774 8.07883 96.9553 8.02551C96.9331 7.97219 96.9007 7.92377 96.8598 7.88302C96.8189 7.84226 96.7704 7.80998 96.717 7.78802C96.6636 7.76606 96.6064 7.75485 96.5487 7.75504ZM94.5034 12.072C94.5034 13.3339 93.6702 14.1814 92.4311 14.1814C91.249 14.1814 90.3574 13.2755 90.3574 12.072C90.3574 10.8685 91.249 9.96979 92.4354 9.96979C93.6702 9.96979 94.5034 10.8115 94.5034 12.072Z" fill="white"/>
<path d="M124.71 4.90656H122.993C122.934 4.90158 122.875 4.90955 122.819 4.92991C122.763 4.95027 122.713 4.98253 122.671 5.02443C122.629 5.06633 122.597 5.11687 122.577 5.17253C122.556 5.22818 122.548 5.28761 122.553 5.34666V8.52422C121.875 7.88167 120.972 7.53129 120.038 7.54859C117.645 7.54859 115.849 9.49557 115.849 12.0721C115.849 14.6486 117.681 16.5942 120.112 16.5942C120.633 16.6019 121.15 16.5051 121.633 16.3093C122.115 16.1136 122.554 15.823 122.922 15.4547L122.959 15.9917C122.959 16.0505 122.971 16.1088 122.994 16.1628C123.018 16.2168 123.052 16.2654 123.095 16.3055C123.138 16.3456 123.189 16.3764 123.245 16.3959C123.3 16.4154 123.359 16.4233 123.418 16.419H124.71C124.769 16.4234 124.829 16.4152 124.886 16.3949C124.942 16.3746 124.994 16.3427 125.037 16.3012C125.08 16.2596 125.114 16.2095 125.137 16.154C125.159 16.0985 125.17 16.0388 125.168 15.9789V5.34666C125.17 5.28674 125.159 5.22708 125.137 5.17156C125.114 5.11603 125.08 5.06589 125.037 5.02438C124.994 4.98287 124.942 4.95093 124.886 4.93063C124.829 4.91033 124.769 4.90213 124.71 4.90656ZM122.646 12.0721C122.646 13.334 121.813 14.1814 120.573 14.1814C119.391 14.1814 118.501 13.2756 118.501 12.0721C118.501 10.8686 119.391 9.96986 120.573 9.96986C121.793 9.96986 122.646 10.8244 122.646 12.0721Z" fill="white"/>
<path d="M135.542 7.75517H134.024C133.927 7.75419 133.833 7.78522 133.756 7.84344C133.679 7.90166 133.623 7.98379 133.597 8.07705L133.454 8.60973C132.819 7.88193 132.022 7.54865 130.906 7.54865C128.485 7.54865 126.662 9.49278 126.662 12.0693C126.662 14.6458 128.464 16.5914 130.851 16.5914C131.36 16.5995 131.865 16.5008 132.333 16.3016C132.801 16.1024 133.223 15.8071 133.57 15.4349L133.607 15.9946C133.608 16.0546 133.621 16.1138 133.646 16.1685C133.671 16.2231 133.707 16.272 133.751 16.3121C133.796 16.3522 133.849 16.3827 133.906 16.4016C133.963 16.4205 134.023 16.4274 134.083 16.4219H135.542C135.602 16.4261 135.662 16.4177 135.718 16.3973C135.774 16.377 135.826 16.345 135.869 16.3035C135.912 16.262 135.946 16.2119 135.968 16.1565C135.991 16.1011 136.002 16.0416 136 15.9818V8.19384C136.001 8.13417 135.991 8.0748 135.968 8.01955C135.945 7.9643 135.911 7.9144 135.868 7.87307C135.825 7.83174 135.774 7.7999 135.718 7.77959C135.662 7.75928 135.602 7.75096 135.542 7.75517ZM133.454 12.0736C133.466 12.3527 133.421 12.6314 133.323 12.8931C133.226 13.1548 133.076 13.3943 132.885 13.5975C132.686 13.7916 132.451 13.9434 132.192 14.0438C131.933 14.1442 131.657 14.191 131.379 14.1815C130.199 14.1815 129.307 13.2757 129.307 12.0721C129.307 10.8686 130.206 9.96991 131.386 9.96991C132.627 9.96991 133.454 10.8117 133.454 12.0736Z" fill="white"/>
<path d="M77.0675 14.3609C77.021 14.2715 76.9454 14.2006 76.8533 14.16C76.7611 14.1193 76.6578 14.1113 76.5604 14.1373C76.4 14.1791 76.2349 14.2002 76.0691 14.1999C75.1476 14.1999 74.6804 13.7726 74.6804 12.9409V9.99974H76.6559C76.7343 9.9997 76.8114 9.97869 76.879 9.93887C76.9466 9.89905 77.0023 9.84188 77.0404 9.77328L77.7939 8.40313C77.8308 8.33629 77.8497 8.26098 77.8486 8.18462C77.8475 8.10826 77.8265 8.03352 77.7876 7.96777C77.7488 7.90202 77.6934 7.84756 77.6271 7.80975C77.5607 7.77195 77.4857 7.75212 77.4093 7.75223H74.6804V5.34663C74.6824 5.28672 74.6717 5.22706 74.6491 5.17153C74.6265 5.11601 74.5924 5.06586 74.5492 5.02435C74.5059 4.98285 74.4544 4.9509 74.398 4.9306C74.3416 4.91031 74.2816 4.9021 74.2218 4.90653H72.5597C72.5019 4.90653 72.4448 4.91793 72.3915 4.94006C72.3381 4.9622 72.2897 4.99464 72.249 5.03552C72.2082 5.07641 72.1759 5.12493 72.154 5.17832C72.132 5.23171 72.1208 5.28891 72.121 5.34663V7.75508H71.0058C70.948 7.75489 70.8909 7.7661 70.8375 7.78806C70.7841 7.81003 70.7355 7.84231 70.6947 7.88306C70.6538 7.92382 70.6213 7.97224 70.5992 8.02556C70.5771 8.07887 70.5657 8.13603 70.5657 8.19376V9.56106C70.5657 9.67741 70.6119 9.78899 70.6942 9.87125C70.7764 9.95352 70.888 9.99974 71.0043 9.99974H72.0469V13.1801C72.0469 15.3166 73.343 16.5984 75.515 16.5984C76.1917 16.6083 76.8639 16.4874 77.4948 16.2423C77.5507 16.2201 77.6014 16.1862 77.6434 16.143C77.6853 16.0998 77.7177 16.0483 77.7383 15.9917C77.7598 15.9344 77.7692 15.8733 77.7657 15.8122C77.7623 15.7512 77.7462 15.6915 77.7184 15.637L77.0675 14.3609Z" fill="white"/>
<path d="M104.872 7.89055C104.19 7.56871 103.424 7.47252 102.684 7.61594C101.944 7.75937 101.268 8.13494 100.756 8.68814L100.594 8.07855C100.568 7.98488 100.513 7.90225 100.435 7.84352C100.358 7.78479 100.264 7.75325 100.166 7.75382H99.0185C98.9609 7.75382 98.9039 7.76517 98.8506 7.78721C98.7974 7.80926 98.7491 7.84157 98.7083 7.8823C98.6676 7.92304 98.6353 7.9714 98.6132 8.02462C98.5912 8.07784 98.5798 8.13489 98.5798 8.1925V15.9861C98.5796 16.0439 98.5909 16.1011 98.6128 16.1544C98.6348 16.2078 98.6671 16.2564 98.7078 16.2972C98.7486 16.3381 98.797 16.3706 98.8503 16.3927C98.9036 16.4148 98.9608 16.4262 99.0185 16.4262H100.773C100.89 16.4262 101.002 16.3799 101.084 16.2973C101.167 16.2148 101.213 16.1029 101.213 15.9861V11.4982C101.214 11.2744 101.272 11.0546 101.383 10.8599C101.493 10.6653 101.652 10.5025 101.844 10.3873C102.13 10.2156 102.455 10.117 102.788 10.1004C103.121 10.0837 103.454 10.1495 103.756 10.2919C103.807 10.3159 103.862 10.3296 103.918 10.3322C103.974 10.3348 104.031 10.3263 104.083 10.3071C104.136 10.2879 104.185 10.2584 104.227 10.2204C104.268 10.1823 104.302 10.1364 104.325 10.0854L105.075 8.47308C105.123 8.36879 105.13 8.24949 105.092 8.14066C105.054 8.03182 104.975 7.94207 104.872 7.89055Z" fill="white"/>
<path d="M58.0051 3.41824C57.1192 3.4453 56.4541 4.02783 56.4541 4.91373C56.4541 5.79963 57.1135 6.40922 58.0051 6.40922C58.8597 6.40922 59.5562 5.79963 59.5562 4.91373C59.5562 4.02783 58.864 3.41824 58.0051 3.41824Z" fill="white"/>
<path d="M36.7464 7.54868C34.2439 7.54868 32.1887 9.48284 32.1887 12.0793C32.1887 14.6758 34.2368 16.5914 36.7464 16.5914C39.256 16.5914 41.2955 14.6572 41.2955 12.0793C41.2997 11.4816 41.1848 10.889 40.9574 10.3363C40.7301 9.78347 40.3949 9.28152 39.9713 8.85973C39.5478 8.43794 39.0445 8.10477 38.4908 7.87966C37.9371 7.65456 37.3441 7.54204 36.7464 7.54868ZM36.7279 15.3822C36.3008 15.377 35.879 15.2875 35.4867 15.1188C35.0943 14.95 34.7392 14.7055 34.4417 14.3991C34.1442 14.0927 33.9101 13.7305 33.753 13.3334C33.5959 12.9363 33.5188 12.512 33.5261 12.085C33.5261 10.1978 34.9931 8.76786 36.7279 8.76786C38.4627 8.76786 39.9311 10.1921 39.9311 12.085C39.9382 12.5124 39.8608 12.9371 39.7033 13.3345C39.5457 13.7319 39.3112 14.0942 39.0131 14.4007C38.715 14.7071 38.3593 14.9516 37.9663 15.12C37.5734 15.2885 37.1511 15.3776 36.7236 15.3822H36.7279Z" fill="white"/>
<path d="M114.107 7.75509H112.595C112.498 7.75412 112.404 7.78515 112.326 7.84337C112.249 7.90158 112.193 7.98372 112.167 8.07698L112.025 8.60966C111.385 7.88185 110.586 7.55142 109.473 7.55142C107.051 7.55142 105.228 9.49556 105.228 12.0721C105.228 14.6486 107.029 16.5941 109.417 16.5941C109.926 16.6025 110.431 16.5038 110.899 16.3046C111.367 16.1054 111.788 15.81 112.135 15.4376L112.173 15.9974C112.174 16.0574 112.187 16.1166 112.212 16.1712C112.237 16.2259 112.273 16.2748 112.318 16.3149C112.362 16.355 112.415 16.3855 112.472 16.4044C112.529 16.4232 112.589 16.4302 112.649 16.4247H114.107C114.167 16.4291 114.227 16.4209 114.283 16.4006C114.34 16.3803 114.391 16.3483 114.435 16.3068C114.478 16.2653 114.512 16.2152 114.535 16.1597C114.557 16.1041 114.568 16.0445 114.566 15.9846V8.19377C114.568 8.13397 114.557 8.07447 114.534 8.01912C114.511 7.96376 114.477 7.91379 114.434 7.87244C114.391 7.83109 114.339 7.79927 114.283 7.77906C114.227 7.75885 114.167 7.75068 114.107 7.75509ZM112.025 12.0735C112.036 12.3527 111.992 12.6313 111.894 12.893C111.796 13.1547 111.647 13.3942 111.455 13.5975C111.257 13.7913 111.023 13.943 110.764 14.0433C110.506 14.1437 110.231 14.1907 109.954 14.1814C108.772 14.1814 107.882 13.2756 107.882 12.0721C107.882 10.8686 108.77 9.96984 109.954 9.96984C111.192 9.96984 112.025 10.8116 112.025 12.0735Z" fill="white"/>
<defs>
<linearGradient id="paint0_linear" x1="9.02567" y1="22.2956" x2="14.6857" y2="9.66937" gradientUnits="userSpaceOnUse">
<stop offset="0.29" stop-color="#DCDDE1"/>
<stop offset="1" stop-color="white"/>
</linearGradient>
</defs>
</svg>
