<svg width="170" height="34" viewBox="0 0 170 34" fill="none" xmlns="http://www.w3.org/2000/svg">
<g clip-path="url(#clip0)">
<rect width="203" height="39" fill="#040405"/>
<path d="M89.0005 20.2098L85.8087 23.4016L89.0005 26.5935L92.1923 23.4016L89.0005 20.2098Z" fill="#FF0074"/>
<path d="M125.695 7.43726V20.2109H125.025L121.404 13.8275L117.776 7.43726H105.501V13.8275V26.5943H112.12V13.8275H112.811L116.432 20.2109L120.055 26.5943H132.315V20.2109V7.43726H125.695Z" fill="white"/>
<path d="M37.651 7.43726V20.2109H36.9803L33.3569 13.8275L29.729 7.43726H17.4562V13.8275V26.5943H24.0752V13.8275H24.7641L28.3875 20.2109L32.0086 26.5943H44.2701V20.2109V7.43726H37.651Z" fill="white"/>
<path d="M155.661 7.4397L148.791 19.5426L141.941 7.4397H133.357L140.576 20.2088H148.412L144.789 26.5922H153.379L164.247 7.4397H155.661Z" fill="white"/>
<path d="M14.6213 7.4397H8V26.5945H14.6213V7.4397Z" fill="white"/>
<path d="M95.8745 26.5922H104.46L93.5926 7.4397H85.002L88.6277 13.8231H80.7736L73.545 26.5922H82.131L88.997 14.4757L95.8745 26.5922Z" fill="white"/>
<path d="M74.3494 21.1106V21.165C74.4038 22.6538 73.9982 23.8094 73.1235 24.6841C70.8144 27 65.419 27 60.1867 27C55.3261 27 52.3463 26.6896 50.2162 25.9554C47.6488 25.0739 46.339 23.5058 46.2053 21.165V20.2132H54.6803L54.7823 21.1491C55.1018 23.4355 58.3014 23.4151 59.8378 23.4151H60.0644C62.2103 23.4151 64.4333 23.4151 65.308 22.4883C65.4542 22.332 65.5641 22.1454 65.6299 21.9417C65.6958 21.738 65.7158 21.5223 65.6887 21.31C65.564 20.177 63.162 19.8507 59.5183 19.3657C56.1555 18.9125 52.0404 18.3823 49.2962 17.0091C47.2817 16.1026 45.87 14.8337 45.7838 12.9755V12.9053V12.8509C45.7295 11.3598 46.1351 10.2064 47.0075 9.33174C49.3189 7 54.7256 7 59.9465 7C64.8072 7 67.787 7.31271 69.9171 8.04691C72.4845 8.92839 73.7943 10.4965 73.928 12.8373V13.7981H65.4553L65.3533 12.8622C65.0338 10.5758 61.8341 10.5962 60.2978 10.5962H60.0712C57.9252 10.5962 55.7023 10.5962 54.8276 11.5253C54.6812 11.6815 54.5712 11.8681 54.5054 12.0718C54.4396 12.2755 54.4196 12.4913 54.4469 12.7036C54.5715 13.8366 56.9735 14.1629 60.6173 14.6456C63.9801 15.0988 68.0952 15.6291 70.8394 17.0023C72.8539 17.9087 74.2656 19.1799 74.3517 21.0381L74.3494 21.1106Z" fill="white"/>
</g>
<defs>
<clipPath id="clip0">
<rect width="170" height="34" fill="white"/>
</clipPath>
</defs>
</svg>
