<svg width="271" height="273" viewBox="0 0 271 273" fill="none" xmlns="http://www.w3.org/2000/svg">
<path d="M14.6785 102.639C16.0044 102.079 17.2006 100.924 17.8449 99.0149C18.8447 96.0525 17.5819 94.4164 15.9854 93.8776C13.6813 93.1 12.433 94.952 11.3503 96.5849C10.4997 97.8561 9.74286 99.0123 8.64016 98.6401C7.6033 98.2902 7.21219 97.1133 7.65652 95.7966C8.06198 94.5952 8.86222 93.582 10.0451 93.0645L9.31889 91.9028C8.03683 92.4968 7.03847 93.6081 6.47194 95.2869C5.74435 97.4429 6.4344 99.4723 8.24479 100.083C10.4008 100.811 11.5555 99.019 12.6106 97.4135C13.4944 96.0985 14.3063 94.8876 15.623 95.3319C16.4624 95.6152 17.3046 96.596 16.6437 98.5546C16.1216 100.102 14.9646 101.031 13.9138 101.483L14.6785 102.639Z" fill="#E5E5E5"/>
<path d="M16.7355 88.4389C19.3177 89.642 21.6699 88.994 22.9976 86.1442C24.3254 83.2943 23.3239 81.0839 20.7102 79.8663L14.3019 76.8807L13.6931 78.1876L20.0856 81.1658C22.0065 82.0607 22.7348 83.6647 21.8325 85.6014C20.9302 87.538 19.2337 88.0124 17.3128 87.1174L10.9203 84.1392L10.3115 85.4461L16.7355 88.4389Z" fill="#E5E5E5"/>
<path d="M30.4565 72.1094L31.3412 70.6551L25.6798 70.8709C26.3826 69.4482 26.1434 67.6355 24.3626 66.5523C22.5372 65.4419 20.5943 66.0289 19.493 67.8393L17.0737 71.8165L26.972 77.8377L27.7213 76.6059L23.7887 74.2137L24.9893 72.24L30.4565 72.1094ZM23.5862 67.8285C24.6992 68.5055 24.9983 69.7854 24.2851 70.9577L22.7053 73.5547L18.9211 71.2528L20.5009 68.6558C21.214 67.4834 22.4732 67.1515 23.5862 67.8285Z" fill="#E5E5E5"/>
<path d="M33.9279 66.9288L34.8014 65.7819L31.1394 62.9929L33.0864 60.4365C34.4756 58.6124 34.0147 56.5801 32.5084 55.433C31.0022 54.2858 28.9415 54.354 27.5313 56.2057L24.7108 59.9091L33.9279 66.9288ZM31.6033 56.6214C32.6397 57.4107 32.79 58.7042 31.9586 59.7959L30.1168 62.2141L26.6069 59.541L28.4486 57.1227C29.28 56.031 30.5669 55.8321 31.6033 56.6214Z" fill="#E5E5E5"/>
<path d="M46.2505 52.3106L47.4174 51.0712L41.8341 50.109C42.8165 48.8629 42.9581 47.0399 41.4405 45.6111C39.8849 44.1466 37.8625 44.3182 36.4099 45.8611L33.2189 49.2505L41.6545 57.1923L42.6427 56.1426L39.2913 52.9873L40.8749 51.3053L46.2505 52.3106ZM40.4165 46.6988C41.365 47.5918 41.3924 48.9058 40.4517 49.9049L38.368 52.1181L35.143 49.0819L37.2267 46.8687C38.1674 45.8696 39.468 45.8058 40.4165 46.6988Z" fill="#E5E5E5"/>
<path d="M50.7369 47.9659L56.4673 42.9878L55.6244 42.0175L50.9823 46.05L48.3623 43.034L52.9125 39.0812L52.0696 38.1108L47.5193 42.0637L45.0702 39.2444L49.7122 35.2118L48.8692 34.2414L43.1388 39.2195L50.7369 47.9659Z" fill="#E5E5E5"/>
<path d="M59.5254 40.6442L65.6984 36.2268L64.9504 35.1815L59.9498 38.7599L57.6249 35.5109L62.5266 32.0033L61.7786 30.958L56.8769 34.4656L54.7036 31.4285L59.7042 27.8502L58.9562 26.8049L52.7832 31.2222L59.5254 40.6442Z" fill="#E5E5E5"/>
<path d="M76.0495 30.1171L77.2591 29.433L71.5558 19.3482L70.3008 20.0579L74.807 28.026L64.4949 23.3414L63.2097 24.0682L68.913 34.153L70.1679 33.4433L65.5677 25.3089L76.0495 30.1171Z" fill="#E5E5E5"/>
<path d="M81.6126 27.3088L85.2665 25.7813C88.5838 24.3944 89.7892 21.1982 88.5162 18.1533C87.2499 15.1244 84.115 13.7051 80.7976 15.092L77.1437 16.6196L81.6126 27.3088ZM82.4469 25.5668L78.9696 17.2494L81.2934 16.2779C83.9377 15.1724 86.1732 16.4217 87.138 18.7295C88.0961 21.0212 87.3669 23.51 84.7707 24.5953L82.4469 25.5668Z" fill="#E5E5E5"/>
<path d="M95.0766 22.0547L102.351 19.8873L101.984 18.6554L96.0913 20.4112L94.9505 16.5824L100.727 14.8614L100.36 13.6295L94.5835 15.3505L93.5172 11.7714L99.4102 10.0157L99.0432 8.78381L91.7684 10.9512L95.0766 22.0547Z" fill="#E5E5E5"/>
<path d="M112.67 17.7349L114.342 17.4146L110.382 13.3626C111.909 12.9287 113.092 11.5348 112.7 9.48762C112.298 7.38926 110.559 6.34293 108.477 6.74165L103.905 7.61753L106.085 18.9964L107.501 18.7252L106.635 14.2043L108.904 13.7696L112.67 17.7349ZM111.233 9.76869C111.478 11.0482 110.73 12.1288 109.382 12.387L106.397 12.959L105.563 8.6087L108.549 8.03676C109.896 7.77857 110.988 8.4892 111.233 9.76869Z" fill="#E5E5E5"/>
<path d="M134.575 16.0374L136.172 16.0129L131.323 4.50005L129.534 4.52746L125.057 16.1832L126.655 16.1587L127.64 13.5726L133.51 13.4827L134.575 16.0374ZM130.457 5.79885L133.057 12.2041L128.037 12.281L130.457 5.79885Z" fill="#E5E5E5"/>
<path d="M153.436 18.046C155.509 18.395 157.041 17.6666 158.219 16.5263L157.116 15.6535C156.3 16.5202 155.003 17.0064 153.65 16.7785C151.2 16.366 149.625 14.1103 150.081 11.4039C150.539 8.68043 152.764 7.08216 155.213 7.49463C156.566 7.72249 157.63 8.6238 158.119 9.69263L159.431 9.22651C158.739 7.78897 157.499 6.5761 155.427 6.22709C152.189 5.68194 149.199 7.64444 148.608 11.1559C148.016 14.6673 150.199 17.5009 153.436 18.046Z" fill="#E5E5E5"/>
<path d="M170.754 22.0851L172.286 22.5384L171.092 10.1031L169.376 9.59564L161.626 19.3853L163.158 19.8386L164.87 17.6641L170.5 19.3293L170.754 22.0851ZM169.878 11.0844L170.448 17.9735L165.635 16.5497L169.878 11.0844Z" fill="#E5E5E5"/>
<path d="M176.523 24.099L180.161 25.6641C183.464 27.085 186.6 25.73 187.904 22.6984C189.201 19.6827 188.043 16.4423 184.74 15.0214L181.102 13.4563L176.523 24.099ZM178.355 23.488L181.918 15.2068L184.232 16.2021C186.864 17.3348 187.52 19.8104 186.532 22.108C185.55 24.3898 183.254 25.5954 180.669 24.4833L178.355 23.488Z" fill="#E5E5E5"/>
<path d="M196.856 34.2389L198.239 35.0398L200.002 22.6724L198.454 21.7757L188.619 29.4681L190.002 30.269L192.177 28.5581L197.258 31.5007L196.856 34.2389ZM198.591 23.3407L197.526 30.1708L193.182 27.6548L198.591 23.3407Z" fill="#E5E5E5"/>
<path d="M207.99 42.0397L213.83 46.8879L214.651 45.8988L209.92 41.9715L212.472 38.8974L217.11 42.7471L217.931 41.7581L213.293 37.9084L215.678 35.0348L220.409 38.9621L221.23 37.9731L215.39 33.1249L207.99 42.0397Z" fill="#E5E5E5"/>
<path d="M222.369 55.3478L223.338 56.3439L231.643 48.2656L230.638 47.2321L224.076 53.6149L225.987 42.4509L224.957 41.3925L216.652 49.4709L217.658 50.5043L224.356 43.9884L222.369 55.3478Z" fill="#E5E5E5"/>
<path d="M228.245 62.3195L229.133 63.4557L237.25 57.1151L239.517 60.0172L240.53 59.226L235.12 52.2993L234.107 53.0905L236.363 55.9789L228.245 62.3195Z" fill="#E5E5E5"/>
<path d="M237.207 75.2778L238.112 76.7194L240.451 71.5589C241.409 72.8236 243.137 73.4201 244.903 72.3115C246.712 71.1752 247.055 69.1749 245.928 67.3803L243.453 63.4381L233.641 69.5999L234.408 70.8208L238.306 68.3727L239.535 70.3291L237.207 75.2778ZM244.108 71.0465C243.005 71.7393 241.726 71.4346 240.997 70.2725L239.38 67.6983L243.131 65.3426L244.748 67.9168C245.477 69.0789 245.211 70.3536 244.108 71.0465Z" fill="#E5E5E5"/>
<path d="M240.28 80.7147L243.653 87.5148L244.805 86.9436L242.072 81.4351L245.651 79.6597L248.33 85.0593L249.481 84.4881L246.803 79.0885L250.148 77.4289L252.881 82.9374L254.032 82.3662L250.659 75.5662L240.28 80.7147Z" fill="#E5E5E5"/>
<path d="M250.475 88.5787C247.097 89.8116 245.74 93.1359 246.872 96.2362C247.521 98.0147 248.813 99.2256 250.308 99.8264L254.241 98.391L252.383 93.3001L251.175 93.7408L252.539 97.4774L250.32 98.2874C249.585 97.9455 248.556 97.1008 248.079 95.7955C247.21 93.4132 248.409 90.923 250.987 89.982C253.581 89.0351 256.07 90.1792 256.939 92.5615C257.416 93.8669 257.219 95.2517 256.588 96.2587L257.65 97.0914C258.489 95.6939 258.85 94.0462 258.147 92.1208C257.015 89.0206 253.852 87.3459 250.475 88.5787Z" fill="#E5E5E5"/>
<path d="M252.051 113.716L252.411 115.273L262.646 108.111L262.243 106.368L249.907 104.442L250.267 105.999L253.002 106.418L254.325 112.138L252.051 113.716ZM261.194 107.537L255.479 111.426L254.348 106.535L261.194 107.537Z" fill="#E5E5E5"/>
<path d="M250.916 120.395C251.594 121.107 252.662 121.589 253.711 121.442C254.537 121.327 254.946 120.743 254.866 120.175C254.794 119.659 254.309 119.324 253.81 119.394C253.294 119.466 252.981 119.861 253.048 120.342C253.06 120.428 253.094 120.546 253.116 120.578C252.539 120.589 251.798 120.184 251.36 119.684L250.916 120.395Z" fill="#E5E5E5"/>
<path d="M260.219 133.703C256.797 133.654 254.193 135.927 254.144 139.366C254.095 142.787 256.632 145.151 260.054 145.2C263.475 145.249 266.079 142.959 266.128 139.537C266.178 136.098 263.64 133.752 260.219 133.703ZM260.075 143.707C257.383 143.668 255.392 141.972 255.429 139.384C255.467 136.779 257.505 135.158 260.197 135.196C262.907 135.235 264.88 136.914 264.843 139.519C264.806 142.107 262.785 143.746 260.075 143.707Z" fill="#E5E5E5"/>
<path d="M252.859 156.933L251.454 164.393L252.717 164.631L253.856 158.588L257.782 159.328L256.665 165.251L257.929 165.489L259.045 159.566L262.715 160.258L261.576 166.3L262.839 166.538L264.245 159.079L252.859 156.933Z" fill="#E5E5E5"/>
<path d="M250.502 168.133L250.106 169.519L255.183 170.97L253.527 176.765L254.763 177.119L256.419 171.323L260.01 172.349L258.32 178.262L259.556 178.615L261.642 171.316L250.502 168.133Z" fill="#E5E5E5"/>
<path d="M247.287 178.587L244.539 185.662L245.737 186.128L247.963 180.396L251.687 181.842L249.505 187.461L250.703 187.926L252.885 182.308L256.367 183.659L254.14 189.391L255.339 189.857L258.087 182.781L247.287 178.587Z" fill="#E5E5E5"/>
<path d="M242.872 189.188L242.249 190.489L252.701 195.488L253.323 194.188L242.872 189.188Z" fill="#E5E5E5"/>
<path d="M238.366 197.863L237.645 199.111L246.564 204.265L244.722 207.453L245.835 208.096L250.232 200.486L249.119 199.843L247.285 203.016L238.366 197.863Z" fill="#E5E5E5"/>
<path d="M238.619 208.661C235.867 206.627 232.426 206.957 230.382 209.723C228.348 212.474 229.032 215.874 231.784 217.908C234.536 219.942 237.987 219.598 240.021 216.846C242.065 214.081 241.371 210.695 238.619 208.661ZM232.672 216.707C230.507 215.107 229.877 212.568 231.416 210.487C232.964 208.391 235.566 208.262 237.731 209.862C239.91 211.473 240.535 213.987 238.987 216.082C237.449 218.164 234.851 218.317 232.672 216.707Z" fill="#E5E5E5"/>
<path d="M219.04 223.254L218.016 224.268L226.171 232.498L227.195 231.484L219.04 223.254Z" fill="#E5E5E5"/>
<path d="M207.798 233.302L206.729 234.19L214.129 243.104L215.238 242.183L209.392 235.14L220.371 237.923L221.507 236.98L214.107 228.066L212.998 228.986L218.966 236.177L207.798 233.302Z" fill="#E5E5E5"/>
<path d="M204.27 238.022C202.88 237.645 201.227 237.815 199.541 238.92C196.926 240.634 196.91 242.701 197.834 244.11C199.167 246.144 201.292 245.457 203.152 244.84C204.606 244.365 205.915 243.922 206.553 244.895C207.153 245.81 206.734 246.978 205.572 247.74C204.512 248.435 203.257 248.738 202.007 248.415L201.861 249.778C203.237 250.102 204.708 249.843 206.19 248.872C208.093 247.624 208.802 245.602 207.755 244.004C206.507 242.101 204.493 242.798 202.672 243.41C201.165 243.9 199.779 244.351 199.017 243.189C198.531 242.448 198.474 241.157 200.202 240.023C201.568 239.128 203.052 239.111 204.158 239.404L204.27 238.022Z" fill="#E5E5E5"/>
<path d="M184.433 247.673L183.007 248.393L192.401 256.628L193.998 255.822L192.93 243.381L191.504 244.102L191.748 246.859L186.507 249.505L184.433 247.673ZM192.612 255.082L187.474 250.457L191.955 248.194L192.612 255.082Z" fill="#E5E5E5"/>
<path d="M171.149 252.964L169.843 253.439L173.804 264.327L175.159 263.834L172.029 255.232L181.427 261.553L182.815 261.048L178.853 250.161L177.498 250.654L180.694 259.436L171.149 252.964Z" fill="#E5E5E5"/>
<path d="M161.906 255.584L160.504 255.919L161.642 260.683L158.768 268.245L160.407 267.853L162.654 261.781L167.402 266.183L169.04 265.792L163.044 260.348L161.906 255.584Z" fill="#E5E5E5"/>
</svg>
