<svg width="88" height="20" viewBox="0 0 88 20" fill="none" xmlns="http://www.w3.org/2000/svg">
<path d="M26.5499 0H22.7977V19.9998H26.5499V0Z" fill="url(#paint0_linear)"/>
<path d="M43.7217 19.9998H39.9695V10.284C39.9695 6.64768 36.9598 3.68878 33.2609 3.68878C29.5621 3.68878 26.5523 6.64768 26.5523 10.284V19.9998H22.8001V10.284C22.7979 4.61316 27.4926 0 33.2609 0C39.0293 0 43.7217 4.61316 43.7217 10.284V19.9998Z" fill="white"/>
<path d="M10.4608 20C4.69247 20 0 15.3868 0 9.71596V0.00012207H3.7522V9.71596C3.7522 13.3523 6.76196 16.3112 10.4608 16.3112C14.1597 16.3112 17.1716 13.3523 17.1716 9.71596V0.00012207H20.9238V9.71596C20.9216 15.3868 16.2292 20 10.4608 20Z" fill="white"/>
<path d="M49.35 0H45.5978V19.9998H49.35V0Z" fill="white"/>
<path d="M77.1 19.9998C71.4917 19.9998 66.9282 15.5134 66.9282 9.99992C66.9282 4.48642 71.4917 0 77.1 0C82.7083 0 87.2719 4.48642 87.2719 9.99992C87.2719 15.5134 82.7083 19.9998 77.1 19.9998ZM77.1 3.68878C73.559 3.68878 70.6804 6.52093 70.6804 9.99992C70.6804 13.4811 73.5612 16.3111 77.1 16.3111C80.6411 16.3111 83.5197 13.4789 83.5197 9.99992C83.5197 6.52093 80.6411 3.68878 77.1 3.68878Z" fill="white"/>
<path d="M61.397 19.9998C55.7887 19.9998 51.2252 15.5134 51.2252 9.99992C51.2252 4.48642 55.7865 0 61.397 0C63.4799 0 65.4849 0.616254 67.1921 1.78102L65.0514 4.80984C63.9756 4.07558 62.7108 3.6866 61.3948 3.6866C57.8538 3.6866 54.9752 6.51874 54.9752 9.99774C54.9752 13.4789 57.856 16.3089 61.3948 16.3089C62.7108 16.3089 63.9733 15.9199 65.0514 15.1856L67.1921 18.2145C65.4849 19.3836 63.4799 19.9998 61.397 19.9998Z" fill="white"/>
<defs>
<linearGradient id="paint0_linear" x1="24.6738" y1="-3" x2="27" y2="13.5" gradientUnits="userSpaceOnUse">
<stop stop-color="white"/>
<stop offset="1" stop-color="white" stop-opacity="0"/>
</linearGradient>
</defs>
</svg>
